0
SECTION
2
HEADER
9
$INSUNITS
70
4
9
$ACADVER
1
AC1014
9
$HANDSEED
5
FFFF
0
ENDSEC
0
SECTION
2
TABLES
0
TABLE
2
VPORT
5
8
100
AcDbSymbolTable
0
ENDTAB
0
TABLE
2
LTYPE
5
5
100
AcDbSymbolTable
0
LTYPE
5
14
100
AcDbSymbolTableRecord
100
AcDbLinetypeTableRecord
2
BYBLOCK
70
0
0
LTYPE
5
15
100
AcDbSymbolTableRecord
100
AcDbLinetypeTableRecord
2
BYLAYER
70
0
0
LTYPE
5
16
100
AcDbSymbolTableRecord
100
AcDbLinetypeTableRecord
2
DASHED
70
0
3
Dashed __ __ __ __ __ __ __ __ __ __ __ __ __ _
72
65
73
2
40
0.75
49
0.5
74
0
49
-0.25
74
0
0
ENDTAB
0
TABLE
2
LAYER
5
2
100
AcDbSymbolTable
70
2
0
LAYER
5
50
100
AcDbSymbolTableRecord
100
AcDbLayerTableRecord
2
0
70
0
62
7
6
CONTINUOUS
0
ENDTAB
0
TABLE
2
STYLE
5
3
100
AcDbSymbolTable
70
1
0
STYLE
5
11
100
AcDbSymbolTableRecord
100
AcDbTextStyleTableRecord
2
STANDARD
70
0
0
ENDTAB
0
TABLE
2
VIEW
5
6
100
AcDbSymbolTable
70
0
0
ENDTAB
0
TABLE
2
UCS
5
7
100
AcDbSymbolTable
70
0
0
ENDTAB
0
TABLE
2
APPID
5
9
100
AcDbSymbolTable
70
2
0
APPID
5
12
100
AcDbSymbolTableRecord
100
AcDbRegAppTableRecord
2
ACAD
70
0
0
ENDTAB
0
TABLE
2
DIMSTYLE
5
A
100
AcDbSymbolTable
70
1
0
ENDTAB
0
TABLE
2
BLOCK_RECORD
5
1
100
AcDbSymbolTable
70
1
0
BLOCK_RECORD
5
1F
100
AcDbSymbolTableRecord
100
AcDbBlockTableRecord
2
*MODEL_SPACE
0
BLOCK_RECORD
5
1B
100
AcDbSymbolTableRecord
100
AcDbBlockTableRecord
2
*PAPER_SPACE
0
ENDTAB
0
ENDSEC
0
SECTION
2
BLOCKS
0
BLOCK
5
20
100
AcDbEntity
100
AcDbBlockBegin
2
*MODEL_SPACE
0
ENDBLK
5
21
100
AcDbEntity
100
AcDbBlockEnd
0
BLOCK
5
1C
100
AcDbEntity
100
AcDbBlockBegin
2
*PAPER_SPACE
0
ENDBLK
5
1D
100
AcDbEntity
100
AcDbBlockEnd
0
ENDSEC
0
SECTION
2
ENTITIES
0
SPLINE
5
100
100
AcDbEntity
8
0
100
AcDbSpline
70
4
71
5
72
26
73
20
74
0
42
0.000000001
43
0.0000000001
44
0.0000000001
40
0
40
0
40
0
40
0
40
0
40
0
40
0.066666666666666666
40
0.13333333333333333
40
0.20000000000000001
40
0.26666666666666666
40
0.33333333333333331
40
0.39999999999999997
40
0.46666666666666662
40
0.53333333333333333
40
0.59999999999999998
40
0.66666666666666663
40
0.73333333333333328
40
0.79999999999999993
40
0.86666666666666659
40
0.93333333333333324
40
1
40
1
40
1
40
1
40
1
40
1
41
1
41
1
41
1
41
1
41
1
41
1
41
1
41
1
41
1
41
1
41
1
41
1
41
1
41
1
41
1
41
1
41
1
41
1
41
1
41
1
10
-6.8264726108507805
20
8.2203728546935544
30
0
10
-6.8266531690951133
20
8.1831821101172793
30
0
10
-6.8200538033633196
20
8.1056799168089118
30
0
10
-6.789256471051738
20
7.9803148090925422
30
0
10
-6.706239030801938
20
7.7926309866776409
30
0
10
-6.5316889927183821
20
7.5514013798098665
30
0
10
-6.2897644746122907
20
7.347766138751509
30
0
10
-5.9850623280346804
20
7.3450372176179988
30
0
10
-5.6407274433295456
20
7.6308859886828788
30
0
10
-5.3027110827986634
20
8.0636582921848028
30
0
10
-5.0229843941759453
20
8.4868648816774233
30
0
10
-4.8480245681326135
20
8.7618335884825047
30
0
10
-4.8110269673967441
20
8.9810718974528232
30
0
10
-4.9053783125491757
20
9.3326648142067565
30
0
10
-5.084024059009141
20
9.8282812890467479
30
0
10
-5.2827507952788419
20
10.443642651013054
30
0
10
-5.4036204849499683
20
10.97542701173526
30
0
10
-5.4486050270044286
20
11.367579172824451
30
0
10
-5.455110935733984
20
11.621433395622356
30
0
10
-5.4524933551209598
20
11.746475367787596
30
0
0
SPLINE
5
101
100
AcDbEntity
8
0
100
AcDbSpline
70
4
71
5
72
26
73
20
74
0
42
0.000000001
43
0.0000000001
44
0.0000000001
40
0
40
0
40
0
40
0
40
0
40
0
40
0.066666666666666666
40
0.13333333333333333
40
0.20000000000000001
40
0.26666666666666666
40
0.33333333333333331
40
0.39999999999999997
40
0.46666666666666662
40
0.53333333333333333
40
0.59999999999999998
40
0.66666666666666663
40
0.73333333333333328
40
0.79999999999999993
40
0.86666666666666659
40
0.93333333333333324
40
1
40
1
40
1
40
1
40
1
40
1
41
1
41
1
41
1
41
1
41
1
41
1
41
1
41
1
41
1
41
1
41
1
41
1
41
1
41
1
41
1
41
1
41
1
41
1
41
1
41
1
10
-6.2655920294003762
20
7.3945261035692784
30
0
10
-6.2585795094692864
20
7.4360901202187337
30
0
10
-6.2400625411821498
20
7.5147730886190933
30
0
10
-6.1989277584560423
20
7.6195075414120685
30
0
10
-6.1161566920965491
20
7.731987368671672
30
0
10
-5.9816426914705456
20
7.8358178690465721
30
0
10
-5.8461075132120266
20
7.9233363013549187
30
0
10
-5.805387419686884
20
8.0505361993032416
30
0
10
-5.9439609579202921
20
8.28303481031665
30
0
10
-6.1910495275869213
20
8.6272674304085868
30
0
10
-6.4335000121719963
20
9.0655565805061062
30
0
10
-6.5496214776558173
20
9.5539419031215225
30
0
10
-6.4565931167419937
20
10.037939938672498
30
0
10
-6.1971087161166007
20
10.451746525153904
30
0
10
-5.8967119277500943
20
10.745775263014675
30
0
10
-5.6188457883223508
20
10.902956924043568
30
0
10
-5.4578533840462082
20
10.916738306473421
30
0
10
-5.3833880972495241
20
10.866656338842425
30
0
10
-5.3557076018147631
20
10.806979003282436
30
0
10
-5.3473470364326339
20
10.770569984930528
30
0
0
SPLINE
5
102
100
AcDbEntity
8
0
100
AcDbSpline
70
6
71
5
72
26
73
20
74
0
42
0.000000001
43
0.0000000001
44
0.0000000001
40
0
40
0
40
0
40
0
40
0
40
0
40
0.066666666666666666
40
0.13333333333333333
40
0.20000000000000001
40
0.26666666666666666
40
0.33333333333333331
40
0.39999999999999997
40
0.46666666666666662
40
0.53333333333333333
40
0.59999999999999998
40
0.66666666666666663
40
0.73333333333333328
40
0.79999999999999993
40
0.86666666666666659
40
0.93333333333333324
40
1
40
1
40
1
40
1
40
1
40
1
41
1
41
1
41
1
41
1
41
1
41
1
41
1
41
1
41
1
41
1
41
1
41
1
41
1
41
1
41
1
41
1
41
1
41
1
41
1
41
1
10
0.93357564968243567
20
7.7954705447272801
30
0
10
0.95159906730960042
20
7.8166269834018207
30
0
10
0.9715536506780722
20
7.8786000310100457
30
0
10
0.95960803312178244
20
8.0336527923827656
30
0
10
0.90239274619113474
20
8.357483443761355
30
0
10
0.815050621488565
20
8.8326666052061782
30
0
10
0.74179062403698104
20
9.2291288589157574
30
0
10
0.67796359837019504
20
9.4149948557485086
30
0
10
0.54066445067934832
20
9.3464314855219168
30
0
10
0.26440395123800742
20
9.0989497276361817
30
0
10
-0.076280265584566048
20
8.7857111873764193
30
0
10
-0.36908267103001902
20
8.5126178865952067
30
0
10
-0.49333368304331726
20
8.3511846543677049
30
0
10
-0.36115927925039937
20
8.2348681841219911
30
0
10
-0.0044712133247832488
20
8.067394786037049
30
0
10
0.43527000950485673
20
7.882476683887365
30
0
10
0.73052849549865551
20
7.7735501699223537
30
0
10
0.86341314491508492
20
7.7516613989628071
30
0
10
0.91555223205527103
20
7.7743141060527385
30
0
10
0.93357564968243567
20
7.7954705447272801
30
0
0
SPLINE
5
103
100
AcDbEntity
8
0
100
AcDbSpline
70
4
71
5
72
36
73
30
74
0
42
0.000000001
43
0.0000000001
44
0.0000000001
40
0
40
0
40
0
40
0
40
0
40
0
40
0.040000000000000001
40
0.080000000000000002
40
0.12
40
0.16
40
0.20000000000000001
40
0.24000000000000002
40
0.28000000000000003
40
0.32000000000000001
40
0.35999999999999999
40
0.39999999999999997
40
0.43999999999999995
40
0.47999999999999993
40
0.51999999999999991
40
0.55999999999999994
40
0.59999999999999998
40
0.64000000000000001
40
0.68000000000000005
40
0.72000000000000008
40
0.76000000000000012
40
0.80000000000000016
40
0.84000000000000019
40
0.88000000000000023
40
0.92000000000000026
40
0.9600000000000003
40
1
40
1
40
1
40
1
40
1
40
1
41
1
41
1
41
1
41
1
41
1
41
1
41
1
41
1
41
1
41
1
41
1
41
1
41
1
41
1
41
1
41
1
41
1
41
1
41
1
41
1
41
1
41
1
41
1
41
1
41
1
41
1
41
1
41
1
41
1
41
1
10
-0.95896261722537446
20
7.0419558469187606
30
0
10
-0.95106894330921654
20
7.1057187323243953
30
0
10
-0.93614633051984386
20
7.2253230172572449
30
0
10
-0.91635665192535787
20
7.3809651496257427
30
0
10
-0.89409542893081551
20
7.540297641480219
30
0
10
-0.86716196078257868
20
7.6572841383147505
30
0
10
-0.83376368132640366
20
7.6931062579164458
30
0
10
-0.78713901730307112
20
7.6548650145807553
30
0
10
-0.72302082065301865
20
7.5588572822870344
30
0
10
-0.64176810165583065
20
7.4342622407824299
30
0
10
-0.54707990681659557
20
7.3154812400525513
30
0
10
-0.44458445079552855
20
7.2326404207342083
30
0
10
-0.34035761131751496
20
7.2048669873218198
30
0
10
-0.23982010432047743
20
7.2274523873932353
30
0
10
-0.14557800838292934
20
7.2736424227172982
30
0
10
-0.058043204150489872
20
7.319792786536361
30
0
10
0.019847057804307011
20
7.3424596886606333
30
0
10
0.082772290243992241
20
7.3248328841511343
30
0
10
0.11257576301289815
20
7.2595441407574519
30
0
10
0.11330473157345541
20
7.1534003401007693
30
0
10
0.10307690686933546
20
7.0212099611595953
30
0
10
0.10449366643548676
20
6.8812108839707351
30
0
10
0.13655375269402317
20
6.7502541141443704
30
0
10
0.20441900666439577
20
6.6382244548700031
30
0
10
0.31217459539429027
20
6.5515774807633376
30
0
10
0.46163867846650675
20
6.4939155189643181
30
0
10
0.61519280484198624
20
6.4722680359246851
30
0
10
0.74946581376477339
20
6.469969104181196
30
0
10
0.8474537886323128
20
6.4746147149237308
30
0
10
0.89856578752417915
20
6.4784820624416595
30
0
0
SPLINE
5
104
100
AcDbEntity
8
0
100
AcDbSpline
70
6
71
5
72
31
73
25
74
0
42
0.000000001
43
0.0000000001
44
0.0000000001
40
0
40
0
40
0
40
0
40
0
40
0
40
0.050000000000000003
40
0.10000000000000001
40
0.15000000000000002
40
0.20000000000000001
40
0.25
40
0.29999999999999999
40
0.34999999999999998
40
0.39999999999999997
40
0.44999999999999996
40
0.49999999999999994
40
0.54999999999999993
40
0.59999999999999998
40
0.65000000000000002
40
0.70000000000000007
40
0.75000000000000011
40
0.80000000000000016
40
0.8500000000000002
40
0.90000000000000024
40
0.95000000000000029
40
1
40
1
40
1
40
1
40
1
40
1
41
1
41
1
41
1
41
1
41
1
41
1
41
1
41
1
41
1
41
1
41
1
41
1
41
1
41
1
41
1
41
1
41
1
41
1
41
1
41
1
41
1
41
1
41
1
41
1
41
1
10
-3.176108185770361
20
5.184767310812008
30
0
10
-3.1349645685511529
20
5.1842007858287946
30
0
10
-3.0573841422281669
20
5.1898480964848028
30
0
10
-2.9522404890992866
20
5.2167046785659386
30
0
10
-2.8164821347787945
20
5.2798733819133536
30
0
10
-2.6655653676756996
20
5.3906616367540527
30
0
10
-2.5559638660479003
20
5.5251020710526682
30
0
10
-2.5212013972563465
20
5.6800687478521397
30
0
10
-2.5990438900134021
20
5.8668475984934521
30
0
10
-2.7655482419958775
20
6.0612446311380372
30
0
10
-2.9642709595641197
20
6.2223274092771206
30
0
10
-3.1427682656609695
20
6.3213740333692794
30
0
10
-3.2715527845216821
20
6.3494974241033901
30
0
10
-3.4049086546822647
20
6.3765958708433343
30
0
10
-3.577685658916741
20
6.4009848539169178
30
0
10
-3.7906652628751814
20
6.3768441941636649
30
0
10
-4.011832547806601
20
6.2591372657858999
30
0
10
-4.1732063185027419
20
6.0335765493470817
30
0
10
-4.1563373558909849
20
5.770493416847982
30
0
10
-3.9715539321702069
20
5.5205621580928064
30
0
10
-3.687578445674486
20
5.3237949777474816
30
0
10
-3.4517507717110787
20
5.2274139099047385
30
0
10
-3.3042458455434076
20
5.1932472463840753
30
0
10
-3.2172518029895691
20
5.1853338357952232
30
0
10
-3.176108185770361
20
5.184767310812008
30
0
0
ELLIPSE
5
105
100
AcDbEntity
8
0
100
AcDbEllipse
10
-0.16847207411475085
20
5.5811640284647819
30
0
11
-0.03048218082198045
21
-0.47247380274069495
31
0.0
40
0.65052223751604399
41
0
42
6.2831853071795862
0
ELLIPSE
5
106
100
AcDbEntity
8
0
100
AcDbEllipse
10
-0.16847207411475085
20
5.5811640284647819
30
0
11
0.5744849943720387
21
-0.061007256039508559
31
0.0
40
0.99929689682289324
41
4.6096065269812101
42
8.4993475239469092
0
SPLINE
5
107
100
AcDbEntity
8
0
100
AcDbSpline
70
4
71
5
72
12
73
6
74
0
42
0.000000001
43
0.0000000001
44
0.0000000001
40
0
40
0
40
0
40
0
40
0
40
0
40
1.1896032240657593e-06
40
1.1896032240657593e-06
40
1.1896032240657593e-06
40
1.1896032240657593e-06
40
1.1896032240657593e-06
40
1.1896032240657593e-06
41
1
41
1
41
1
41
1
41
1
41
1
10
-0.46531630853083644
20
6.0764810687552018
30
0
10
-0.46531639903366401
20
6.0764810145998371
30
0
10
-0.46531648953648397
20
6.0764809604442425
30
0
10
-0.46531658003929632
20
6.0764809062884186
30
0
10
-0.46531667054210102
20
6.076480852132363
30
0
10
-0.46531676104489805
20
6.0764807979760791
30
0
0
SPLINE
5
108
100
AcDbEntity
8
0
100
AcDbSpline
70
4
71
5
72
17
73
11
74
0
42
0.000000001
43
0.0000000001
44
0.0000000001
40
0.48231163636988861
40
0.48231163636988861
40
0.48231163636988861
40
0.48231163636988861
40
0.48231163636988861
40
0.48231163636988861
40
0.5
40
0.59999999999999998
40
0.69999999999999996
40
0.79999999999999993
40
0.89999999999999991
40
1
40
1
40
1
40
1
40
1
40
1
41
1
41
1
41
1
41
1
41
1
41
1
41
1
41
1
41
1
41
1
41
1
10
-0.58044188442092404
20
5.6393734499333315
30
0
10
-0.5801849829904917
20
5.6344295016656361
30
0
10
-0.57827226577316471
20
5.6014368193144994
30
0
10
-0.57221414550847083
20
5.5392656339357575
30
0
10
-0.55631050642542157
20
5.4466723623121949
30
0
10
-0.5218382006326876
20
5.3262853401978738
30
0
10
-0.46158833428307894
20
5.1949359664042216
30
0
10
-0.39978855432991278
20
5.1080275388223857
30
0
10
-0.34652790562309577
20
5.0564971868613107
30
0
10
-0.30804398053014875
20
5.0286608510754647
30
0
10
-0.28805776603021793
20
5.0163720915547136
30
0
0
SPLINE
5
109
100
AcDbEntity
8
0
100
AcDbSpline
70
4
71
5
72
21
73
15
74
0
42
0.000000001
43
0.0000000001
44
0.0000000001
40
0
40
0
40
0
40
0
40
0
40
0
40
0.10000000000000001
40
0.20000000000000001
40
0.30000000000000004
40
0.40000000000000002
40
0.5
40
0.59999999999999998
40
0.69999999999999996
40
0.79999999999999993
40
0.89999999999999991
40
1
40
1
40
1
40
1
40
1
40
1
41
1
41
1
41
1
41
1
41
1
41
1
41
1
41
1
41
1
41
1
41
1
41
1
41
1
41
1
41
1
10
-0.58044188442092404
20
5.6393734499333315
30
0
10
-0.57527928637435055
20
5.6529136549852907
30
0
10
-0.56553376664743515
20
5.6813247290645821
30
0
10
-0.55266508404605641
20
5.7279348132043246
30
0
10
-0.53897234099324931
20
5.7981872214686536
30
0
10
-0.52457359478415777
20
5.899459680521951
30
0
10
-0.50118737822274517
20
6.0122621706632202
30
0
10
-0.44741805115942257
20
6.1317707687469545
30
0
10
-0.31779563441778153
20
6.247072693156035
30
0
10
-0.11526517329138465
20
6.3484170634817314
30
0
10
0.13355358402190545
20
6.4269968385529985
30
0
10
0.33945485831448619
20
6.4656636781471652
30
0
10
0.48250163557206316
20
6.4785679835963812
30
0
10
0.57061725065329938
20
6.4796956049183745
30
0
10
0.61286305512868322
20
6.478390479390149
30
0
0
SPLINE
5
110
100
AcDbEntity
8
0
100
AcDbSpline
70
6
71
5
72
41
73
35
74
0
42
0.000000001
43
0.0000000001
44
0.0000000001
40
0
40
0
40
0
40
0
40
0
40
0
40
0.033333333333333333
40
0.066666666666666666
40
0.10000000000000001
40
0.13333333333333333
40
0.16666666666666666
40
0.19999999999999998
40
0.23333333333333331
40
0.26666666666666666
40
0.29999999999999999
40
0.33333333333333331
40
0.36666666666666664
40
0.39999999999999997
40
0.43333333333333329
40
0.46666666666666662
40
0.49999999999999994
40
0.53333333333333333
40
0.56666666666666665
40
0.59999999999999998
40
0.6333333333333333
40
0.66666666666666663
40
0.69999999999999996
40
0.73333333333333328
40
0.76666666666666661
40
0.79999999999999993
40
0.83333333333333326
40
0.86666666666666659
40
0.89999999999999991
40
0.93333333333333324
40
0.96666666666666656
40
1
40
1
40
1
40
1
40
1
40
1
41
1
41
1
41
1
41
1
41
1
41
1
41
1
41
1
41
1
41
1
41
1
41
1
41
1
41
1
41
1
41
1
41
1
41
1
41
1
41
1
41
1
41
1
41
1
41
1
41
1
41
1
41
1
41
1
41
1
41
1
41
1
41
1
41
1
41
1
41
1
10
-3.3690929924959887
20
5.3589144657729149
30
0
10
-3.3590278624035079
20
5.3577162363956718
30
0
10
-3.3383383104323894
20
5.3582932373549674
30
0
10
-3.3038102035731329
20
5.3679627392954785
30
0
10
-3.2434568274328939
20
5.3970225890593042
30
0
10
-3.1490934029034112
20
5.455618741667168
30
0
10
-3.0508964337044571
20
5.5330341296199066
30
0
10
-2.9710590646739088
20
5.6271835401387662
30
0
10
-2.9400061724522186
20
5.7446389678008467
30
0
10
-2.9751829774056149
20
5.8896070816606683
30
0
10
-3.0531316391338876
20
6.0397990056795523
30
0
10
-3.1391484461317409
20
6.1671741992588327
30
0
10
-3.2061468682316248
20
6.2482028949825255
30
0
10
-3.240792586464774
20
6.2699111444581179
30
0
10
-3.296381368368178
20
6.2583469481603711
30
0
10
-3.3965065263507683
20
6.2329138847898866
30
0
10
-3.5069589442153282
20
6.1898105159960508
30
0
10
-3.5852882514135231
20
6.1285269463635927
30
0
10
-3.5928433211285786
20
6.0508034006082561
30
0
10
-3.5378639743824714
20
5.9963730075224833
30
0
10
-3.4501092494194108
20
5.9669788531936163
30
0
10
-3.3631023144759293
20
5.9365856104391677
30
0
10
-3.3104268442003986
20
5.8821701547737018
30
0
10
-3.317210238790036
20
5.8030551932034022
30
0
10
-3.3914605862686797
20
5.7535613950021069
30
0
10
-3.4979617153492049
20
5.7287513209459293
30
0
10
-3.5900924039950071
20
5.7062360910139596
30
0
10
-3.6260144981313758
20
5.6578621990244313
30
0
10
-3.5982985672315255
20
5.578988096234367
30
0
10
-3.5409547402975692
20
5.4960309874746063
30
0
10
-3.475024488350575
20
5.4229268205998071
30
0
10
-3.428223571771122
20
5.3825742491019533
30
0
10
-3.3987290909872794
20
5.3654826136184317
30
0
10
-3.3791581225884699
20
5.3601126951501579
30
0
10
-3.3690929924959887
20
5.3589144657729149
30
0
0
SPLINE
5
111
100
AcDbEntity
8
0
100
AcDbSpline
70
4
71
5
72
46
73
40
74
0
42
0.000000001
43
0.0000000001
44
0.0000000001
40
0
40
0
40
0
40
0
40
0
40
0
40
0.028571428571428571
40
0.057142857142857141
40
0.085714285714285715
40
0.11428571428571428
40
0.14285714285714285
40
0.17142857142857143
40
0.20000000000000001
40
0.22857142857142859
40
0.25714285714285717
40
0.28571428571428575
40
0.31428571428571433
40
0.34285714285714292
40
0.3714285714285715
40
0.40000000000000008
40
0.42857142857142866
40
0.45714285714285724
40
0.48571428571428582
40
0.51428571428571435
40
0.54285714285714293
40
0.57142857142857151
40
0.60000000000000009
40
0.62857142857142867
40
0.65714285714285725
40
0.68571428571428583
40
0.71428571428571441
40
0.74285714285714299
40
0.77142857142857157
40
0.80000000000000016
40
0.82857142857142874
40
0.85714285714285732
40
0.8857142857142859
40
0.91428571428571448
40
0.94285714285714306
40
0.97142857142857164
40
1
40
1
40
1
40
1
40
1
40
1
41
1
41
1
41
1
41
1
41
1
41
1
41
1
41
1
41
1
41
1
41
1
41
1
41
1
41
1
41
1
41
1
41
1
41
1
41
1
41
1
41
1
41
1
41
1
41
1
41
1
41
1
41
1
41
1
41
1
41
1
41
1
41
1
41
1
41
1
41
1
41
1
41
1
41
1
41
1
41
1
10
-0.90850569034188067
20
3.3715987815076649
30
0
10
-0.90885667330393227
20
3.3727388668515221
30
0
10
-0.90897910026641393
20
3.3720737128509115
30
0
10
-0.90738346773904488
20
3.3622927011319295
30
0
10
-0.90314082271768625
20
3.3436541196762959
30
0
10
-0.90353666069748029
20
3.3629039823743185
30
0
10
-0.93303127798640595
20
3.4476733348988131
30
0
10
-1.0180198587974985
20
3.566099886622319
30
0
10
-1.1530232717341196
20
3.6962550670070087
30
0
10
-1.3190846135577761
20
3.8145242887337134
30
0
10
-1.4851439652205305
20
3.9077236117800744
30
0
10
-1.6170930181231367
20
3.9748324722419817
30
0
10
-1.6819125264190047
20
4.0345686016557902
30
0
10
-1.6571618253425164
20
4.1291030832419926
30
0
10
-1.5583672913243607
20
4.2485843762720545
30
0
10
-1.417004431558657
20
4.364745085212502
30
0
10
-1.264702094690084
20
4.4461097731846859
30
0
10
-1.1253422462652576
20
4.4710392542106572
30
0
10
-0.97949634164614452
20
4.4636561431829467
30
0
10
-0.8115828032529947
20
4.4559144136327831
30
0
10
-0.63935969245165081
20
4.4528019580071749
30
0
10
-0.48672942233864586
20
4.4519363948839574
30
0
10
-0.37439103767932169
20
4.4409363869278993
30
0
10
-0.31235347539310576
20
4.4067829116795245
30
0
10
-0.26860361617363471
20
4.3337107507890709
30
0
10
-0.22673279491727466
20
4.2281170905473111
30
0
10
-0.19579611226921614
20
4.1123837276770123
30
0
10
-0.18824433617818631
20
4.0096855507757923
30
0
10
-0.21499955097178849
20
3.9365518137200652
30
0
10
-0.26376380508558406
20
3.8823342637034446
30
0
10
-0.32458085053161101
20
3.8356070489298548
30
0
10
-0.39199890946882887
20
3.7884257285436256
30
0
10
-0.4621142802904602
20
3.7348927940470706
30
0
10
-0.53206944109582954
20
3.6722567057256761
30
0
10
-0.59827276853411826
20
3.6011406083167739
30
0
10
-0.6568024199188004
20
3.5246095768243619
30
0
10
-0.69461848110516911
20
3.4622069328766489
30
0
10
-0.71671915022946453
20
3.4163170572099673
30
0
10
-0.72852447278798427
20
3.3863460473629221
30
0
10
-0.73369500728592929
20
3.3715161426221743
30
0
0
SPLINE
5
112
100
AcDbEntity
8
0
100
AcDbSpline
70
4
71
5
72
16
73
10
74
0
42
0.000000001
43
0.0000000001
44
0.0000000001
40
0
40
0
40
0
40
0
40
0
40
0
40
0.20000000000000001
40
0.40000000000000002
40
0.60000000000000009
40
0.80000000000000004
40
1
40
1
40
1
40
1
40
1
40
1
41
1
41
1
41
1
41
1
41
1
41
1
41
1
41
1
41
1
41
1
10
-0.90850569034188067
20
3.3715987815076649
30
0
10
-0.8998925664434404
20
3.349200466852098
30
0
10
-0.88327322776895323
20
3.3101658475265143
30
0
10
-0.86016318180042584
20
3.2688851349190622
30
0
10
-0.83237558257051791
20
3.2442591756735273
30
0
10
-0.80021749309069268
20
3.2517319267398377
30
0
10
-0.77460762079079426
20
3.2831206820064267
30
0
10
-0.75458419179668235
20
3.3212328291040203
30
0
10
-0.74074060637379446
20
3.353595143802377
30
0
10
-0.73369500728592929
20
3.3715161426221743
30
0
0
SPLINE
5
113
100
AcDbEntity
8
0
100
AcDbSpline
70
4
71
5
72
91
73
85
74
0
42
0.000000001
43
0.0000000001
44
0.0000000001
40
0
40
0
40
0
40
0
40
0
40
0
40
0.012500000000000001
40
0.025000000000000001
40
0.037500000000000006
40
0.050000000000000003
40
0.0625
40
0.074999999999999997
40
0.087499999999999994
40
0.099999999999999992
40
0.11249999999999999
40
0.12499999999999999
40
0.13749999999999998
40
0.14999999999999999
40
0.16250000000000001
40
0.17500000000000002
40
0.18750000000000003
40
0.20000000000000004
40
0.21250000000000005
40
0.22500000000000006
40
0.23750000000000007
40
0.25000000000000006
40
0.26250000000000007
40
0.27500000000000008
40
0.28750000000000009
40
0.3000000000000001
40
0.31250000000000011
40
0.32500000000000012
40
0.33750000000000013
40
0.35000000000000014
40
0.36250000000000016
40
0.37500000000000017
40
0.38750000000000018
40
0.40000000000000019
40
0.4125000000000002
40
0.42500000000000021
40
0.43750000000000022
40
0.45000000000000023
40
0.46250000000000024
40
0.47500000000000026
40
0.48750000000000027
40
0.50000000000000022
40
0.51250000000000018
40
0.52500000000000013
40
0.53750000000000009
40
0.55000000000000004
40
0.5625
40
0.57499999999999996
40
0.58749999999999991
40
0.59999999999999987
40
0.61249999999999982
40
0.62499999999999978
40
0.63749999999999973
40
0.64999999999999969
40
0.66249999999999964
40
0.6749999999999996
40
0.68749999999999956
40
0.69999999999999951
40
0.71249999999999947
40
0.72499999999999942
40
0.73749999999999938
40
0.74999999999999933
40
0.76249999999999929
40
0.77499999999999925
40
0.7874999999999992
40
0.79999999999999916
40
0.81249999999999911
40
0.82499999999999907
40
0.83749999999999902
40
0.84999999999999898
40
0.86249999999999893
40
0.87499999999999889
40
0.88749999999999885
40
0.8999999999999988
40
0.91249999999999876
40
0.92499999999999871
40
0.93749999999999867
40
0.94999999999999862
40
0.96249999999999858
40
0.97499999999999853
40
0.98749999999999849
40
1
40
1
40
1
40
1
40
1
40
1
41
1
41
1
41
1
41
1
41
1
41
1
41
1
41
1
41
1
41
1
41
1
41
1
41
1
41
1
41
1
41
1
41
1
41
1
41
1
41
1
41
1
41
1
41
1
41
1
41
1
41
1
41
1
41
1
41
1
41
1
41
1
41
1
41
1
41
1
41
1
41
1
41
1
41
1
41
1
41
1
41
1
41
1
41
1
41
1
41
1
41
1
41
1
41
1
41
1
41
1
41
1
41
1
41
1
41
1
41
1
41
1
41
1
41
1
41
1
41
1
41
1
41
1
41
1
41
1
41
1
41
1
41
1
41
1
41
1
41
1
41
1
41
1
41
1
41
1
41
1
41
1
41
1
41
1
41
1
41
1
41
1
41
1
41
1
41
1
41
1
10
0.63970808565929171
20
3.3997489828532466
30
0
10
0.6268990837180386
20
3.350085633783999
30
0
10
0.60317390102683877
20
3.2501038455630509
30
0
10
0.57329249302653384
20
3.098138735857074
30
0
10
0.53499767466643189
20
2.9013603798121874
30
0
10
0.44836789709699987
20
2.7053836095071371
30
0
10
0.29063167711378629
20
2.5887127580732496
30
0
10
0.077935059162926951
20
2.5295932354816442
30
0
10
-0.13626949319958315
20
2.4647342812668667
30
0
10
-0.3063299169153062
20
2.3333019315301957
30
0
10
-0.43878634833360042
20
2.1179052693503619
30
0
10
-0.60999431267810023
20
1.8660672285840176
30
0
10
-0.90690224857963364
20
1.6511167186359066
30
0
10
-1.3787097239512036
20
1.5431548067016512
30
0
10
-1.9934870321776319
20
1.5802814103813214
30
0
10
-2.5642466575596856
20
1.7280688910198077
30
0
10
-3.0254726896913562
20
1.9378937089430655
30
0
10
-3.3716949857713869
20
2.1568852121454323
30
0
10
-3.6476633232071536
20
2.3435909506121897
30
0
10
-3.9175838891207873
20
2.478626657426426
30
0
10
-4.2472626721878823
20
2.584481427244778
30
0
10
-4.6714031479043507
20
2.7269595168271672
30
0
10
-5.1657346383470077
20
2.8987142322864212
30
0
10
-5.6783214062640983
20
3.0783502848098139
30
0
10
-6.1447471338966491
20
3.2452737491247508
30
0
10
-6.5107046809246523
20
3.413378285774467
30
0
10
-6.7493473790220273
20
3.6540721981675546
30
0
10
-6.8873579109791976
20
4.1368718354516449
30
0
10
-6.9454291738219265
20
4.8365214652854842
30
0
10
-6.9458201024379846
20
5.642945573792904
30
0
10
-6.9095039742902022
20
6.4025711564055889
30
0
10
-6.8567645634743313
20
6.9769413642660982
30
0
10
-6.8073649426190457
20
7.3146443708016093
30
0
10
-6.7784741458306588
20
7.4692149087566637
30
0
10
-6.7898000330451191
20
7.7636620121064599
30
0
10
-6.8344226766578462
20
8.3096847974172512
30
0
10
-6.8887019012908173
20
9.052676652561523
30
0
10
-6.9242578465675466
20
9.8544686452113304
30
0
10
-6.9152586549852568
20
10.546305379416268
30
0
10
-6.8558677134743453
20
11.016550808783741
30
0
10
-6.7543010039494931
20
11.232476903363972
30
0
10
-6.6848758902653804
20
11.417816581030671
30
0
10
-6.6092563259404704
20
11.641877433227618
30
0
10
-6.4401429809014763
20
11.84701505107517
30
0
10
-6.1667508826910105
20
11.964406247504467
30
0
10
-5.8770618917208006
20
11.973965201397892
30
0
10
-5.5775804392139534
20
11.859447523946834
30
0
10
-5.2683759284968144
20
11.617161172891182
30
0
10
-4.9378061596297194
20
11.253195200695338
30
0
10
-4.5912311813000297
20
10.775254087598515
30
0
10
-4.2657617224098976
20
10.235164814751148
30
0
10
-4.0024160879307056
20
9.7067557279726913
30
0
10
-3.8320202279888198
20
9.2663218794211044
30
0
10
-3.7359287499847351
20
8.9658047860467356
30
0
10
-3.6631069897945601
20
8.8245541138901142
30
0
10
-3.4133234841274769
20
8.7758327502398359
30
0
10
-2.9196601633064483
20
8.7487149444489116
30
0
10
-2.3033249194205769
20
8.7174207562209798
30
0
10
-1.7330285879165963
20
8.6790660757270608
30
0
10
-1.3506156193935812
20
8.6629570140292849
30
0
10
-1.196270184066466
20
8.7195513684713806
30
0
10
-1.0592480780578419
20
8.9373063154034629
30
0
10
-0.84550080598987787
20
9.3020545668765493
30
0
10
-0.5333748521421382
20
9.7449201452287149
30
0
10
-0.15723794692797327
20
10.170249057724954
30
0
10
0.22595944729381323
20
10.49190562744683
30
0
10
0.54219013896625068
20
10.662746092905049
30
0
10
0.76765417892589338
20
10.715619882782292
30
0
10
0.96168892345974466
20
10.688429121472572
30
0
10
1.1809680688783624
20
10.613599155823277
30
0
10
1.3254981819285583
20
10.391317334440512
30
0
10
1.3515643722815776
20
10.030009693159593
30
0
10
1.3065397077509131
20
9.6297803112025306
30
0
10
1.2482113484994333
20
9.2842010219609747
30
0
10
1.1944853790083227
20
8.9661663696737381
30
0
10
1.102269490718593
20
8.5395992578028697
30
0
10
0.99797558882908666
20
8.0879674590963688
30
0
10
0.9110792166226398
20
7.7059777626829824
30
0
10
0.8728950826519376
20
7.4823645885509986
30
0
10
0.87574660157169248
20
7.3392358023516664
30
0
10
0.87955911734118075
20
7.0883316810881523
30
0
10
0.8835972002359288
20
6.8365695468853662
30
0
10
0.88918362643395366
20
6.649529850781061
30
0
10
0.89508382142091891
20
6.5340101742300005
30
0
10
0.89856578752417915
20
6.4784820624416595
30
0
0
SPLINE
5
114
100
AcDbEntity
8
0
100
AcDbSpline
70
4
71
5
72
26
73
20
74
0
42
0.000000001
43
0.0000000001
44
0.0000000001
40
0
40
0
40
0
40
0
40
0
40
0
40
0.066666666666666666
40
0.13333333333333333
40
0.20000000000000001
40
0.26666666666666666
40
0.33333333333333331
40
0.39999999999999997
40
0.46666666666666662
40
0.53333333333333333
40
0.59999999999999998
40
0.66666666666666663
40
0.73333333333333328
40
0.79999999999999993
40
0.86666666666666659
40
0.93333333333333324
40
1
40
1
40
1
40
1
40
1
40
1
41
1
41
1
41
1
41
1
41
1
41
1
41
1
41
1
41
1
41
1
41
1
41
1
41
1
41
1
41
1
41
1
41
1
41
1
41
1
41
1
10
0.89856578752417915
20
6.4784820624416595
30
0
10
0.8995772462797933
20
6.4621601112273739
30
0
10
0.90140208715309389
20
6.424367228126969
30
0
10
0.9035254454372863
20
6.351995103052448
30
0
10
0.90758675250618204
20
6.2428470606009459
30
0
10
0.92315004459467997
20
6.1398206889617848
30
0
10
0.95493831844377186
20
6.1060333978688055
30
0
10
0.99148548162409467
20
6.0191945741937678
30
0
10
1.012536426193495
20
5.7343886803269761
30
0
10
1.0110000738685405
20
5.3019175621391126
30
0
10
0.98379183036818685
20
4.817211336842985
30
0
10
0.93407653080506003
20
4.4028135174828282
30
0
10
0.86875771059833284
20
4.1397149282329524
30
0
10
0.79869195101945389
20
4.0112590589928239
30
0
10
0.73700874884060685
20
3.851910645294931
30
0
10
0.68872472751309644
20
3.6596480737013564
30
0
10
0.66209774205912186
20
3.5133515790553722
30
0
10
0.64851322287176072
20
3.4387379703980909
30
0
10
0.64218825652002498
20
3.4093438642501517
30
0
10
0.63970808565929171
20
3.3997489828532466
30
0
0
SPLINE
5
115
100
AcDbEntity
8
0
100
AcDbSpline
70
4
71
5
72
31
73
25
74
0
42
0.000000001
43
0.0000000001
44
0.0000000001
40
0
40
0
40
0
40
0
40
0
40
0
40
0.050000000000000003
40
0.10000000000000001
40
0.15000000000000002
40
0.20000000000000001
40
0.25
40
0.29999999999999999
40
0.34999999999999998
40
0.39999999999999997
40
0.44999999999999996
40
0.49999999999999994
40
0.54999999999999993
40
0.59999999999999998
40
0.65000000000000002
40
0.70000000000000007
40
0.75000000000000011
40
0.80000000000000016
40
0.8500000000000002
40
0.90000000000000024
40
0.95000000000000029
40
1
40
1
40
1
40
1
40
1
40
1
41
1
41
1
41
1
41
1
41
1
41
1
41
1
41
1
41
1
41
1
41
1
41
1
41
1
41
1
41
1
41
1
41
1
41
1
41
1
41
1
41
1
41
1
41
1
41
1
41
1
10
-6.9285061610306524
20
4.7170973261140787
30
0
10
-6.9067925915249635
20
4.6614446566302927
30
0
10
-6.861779745531063
20
4.5560863900827666
30
0
10
-6.7895195067427849
20
4.4158643965080628
30
0
10
-6.6857829599779608
20
4.2650106786061031
30
0
10
-6.5542907182453893
20
4.1392096325741132
30
0
10
-6.42762553711239
20
4.085531139781855
30
0
10
-6.3069548083636366
20
4.1134105524662541
30
0
10
-6.1688301394099394
20
4.2537116626479925
30
0
10
-6.0054471879840507
20
4.4833534110334874
30
0
10
-5.8258529551921505
20
4.736735057819887
30
0
10
-5.6415710000191392
20
4.9378966826012611
30
0
10
-5.4623034279268676
20
5.0225425063726199
30
0
10
-5.2797396262437335
20
4.9661674465639702
30
0
10
-5.0751863617548789
20
4.806382480427227
30
0
10
-4.8537705634598289
20
4.6085889088438874
30
0
10
-4.6282883960144394
20
4.4476140344694439
30
0
10
-4.4206690047193629
20
4.3821876023045832
30
0
10
-4.254202879425816
20
4.4376211308012756
30
0
10
-4.1558552165286571
20
4.5702146957366567
30
0
10
-4.0942180586721379
20
4.7265620390641168
30
0
10
-4.0310979879895248
20
4.8284968886248025
30
0
10
-3.9516938117544926
20
4.8735507803207723
30
0
10
-3.8809815603799631
20
4.8872977766114625
30
0
10
-3.8411795355484459
20
4.8900988705456632
30
0
0
SPLINE
5
116
100
AcDbEntity
8
0
100
AcDbSpline
70
4
71
5
72
26
73
20
74
0
42
0.000000001
43
0.0000000001
44
0.0000000001
40
0
40
0
40
0
40
0
40
0
40
0
40
0.066666666666666666
40
0.13333333333333333
40
0.20000000000000001
40
0.26666666666666666
40
0.33333333333333331
40
0.39999999999999997
40
0.46666666666666662
40
0.53333333333333333
40
0.59999999999999998
40
0.66666666666666663
40
0.73333333333333328
40
0.79999999999999993
40
0.86666666666666659
40
0.93333333333333324
40
1
40
1
40
1
40
1
40
1
40
1
41
1
41
1
41
1
41
1
41
1
41
1
41
1
41
1
41
1
41
1
41
1
41
1
41
1
41
1
41
1
41
1
41
1
41
1
41
1
41
1
10
-1.6594246970596414
20
4.0851218034300931
30
0
10
-1.6665000248225901
20
4.0932972228937832
30
0
10
-1.6869587987033186
20
4.1126843535199944
30
0
10
-1.7365581794357163
20
4.1508689584902285
30
0
10
-1.8334177557338354
20
4.2195904122345205
30
0
10
-1.9674796926461413
20
4.3326325264483163
30
0
10
-2.0733073226079575
20
4.4702886212811022
30
0
10
-2.1183236116280546
20
4.6292601579675106
30
0
10
-2.1035528439007409
20
4.8097927188034681
30
0
10
-2.0509408552277213
20
5.0046221837222449
30
0
10
-1.9841260839381716
20
5.1986540949579449
30
0
10
-1.9311421242705984
20
5.3771568059573518
30
0
10
-1.9159747305348385
20
5.5287369361519358
30
0
10
-1.9608002326710174
20
5.654660920080814
30
0
10
-2.0684417298317936
20
5.7658929031683037
30
0
10
-2.2083272566875864
20
5.8636549434730609
30
0
10
-2.3145623606677117
20
5.9309902228085658
30
0
10
-2.3744934961021986
20
5.9743647204661752
30
0
10
-2.4033884457331296
20
5.9999621880137202
30
0
10
-2.4150689624199013
20
6.0119297630000119
30
0
0
SPLINE
5
117
100
AcDbEntity
8
0
100
AcDbSpline
70
4
71
5
72
41
73
35
74
0
42
0.000000001
43
0.0000000001
44
0.0000000001
40
0
40
0
40
0
40
0
40
0
40
0
40
0.033333333333333333
40
0.066666666666666666
40
0.10000000000000001
40
0.13333333333333333
40
0.16666666666666666
40
0.19999999999999998
40
0.23333333333333331
40
0.26666666666666666
40
0.29999999999999999
40
0.33333333333333331
40
0.36666666666666664
40
0.39999999999999997
40
0.43333333333333329
40
0.46666666666666662
40
0.49999999999999994
40
0.53333333333333333
40
0.56666666666666665
40
0.59999999999999998
40
0.6333333333333333
40
0.66666666666666663
40
0.69999999999999996
40
0.73333333333333328
40
0.76666666666666661
40
0.79999999999999993
40
0.83333333333333326
40
0.86666666666666659
40
0.89999999999999991
40
0.93333333333333324
40
0.96666666666666656
40
1
40
1
40
1
40
1
40
1
40
1
41
1
41
1
41
1
41
1
41
1
41
1
41
1
41
1
41
1
41
1
41
1
41
1
41
1
41
1
41
1
41
1
41
1
41
1
41
1
41
1
41
1
41
1
41
1
41
1
41
1
41
1
41
1
41
1
41
1
41
1
41
1
41
1
41
1
41
1
41
1
10
-2.4005099577305886
20
8.1667159674111094
30
0
10
-2.4080281267692021
20
8.170271723078594
30
0
10
-2.425868672663984
20
8.1805001844531837
30
0
10
-2.4610415669784182
20
8.2051938866858549
30
0
10
-2.5240607273682074
20
8.2502030333720189
30
0
10
-2.6251110372088036
20
8.2928752204572387
30
0
10
-2.7417903933692473
20
8.2867699578105629
30
0
10
-2.8659212817267052
20
8.2111226182154677
30
0
10
-2.9888656899796109
20
8.0750614915742851
30
0
10
-3.1037795884035368
20
7.9070577668218807
30
0
10
-3.2103238192144379
20
7.7476280515885882
30
0
10
-3.3135793777262896
20
7.6364510222077637
30
0
10
-3.4367034083686923
20
7.6121201863015386
30
0
10
-3.5991731264389282
20
7.6803044017759099
30
0
10
-3.7820174103107576
20
7.7936895310045742
30
0
10
-3.9604271287903279
20
7.8904984080312213
30
0
10
-4.1097581081622456
20
7.9120507871229133
30
0
10
-4.2311364937941596
20
7.8312732328663062
30
0
10
-4.3489358694075388
20
7.671965266614027
30
0
10
-4.455194399935178
20
7.4707992154650151
30
0
10
-4.5401949295156712
20
7.2724378253794129
30
0
10
-4.6029061347471645
20
7.114065839502155
30
0
10
-4.6578845817780179
20
7.0171060175105957
30
0
10
-4.7742343607933782
20
6.9685645695162108
30
0
10
-4.9436752255260092
20
6.9389259737569251
30
0
10
-5.1139064879493255
20
6.8954529128990298
30
0
10
-5.2216780526412414
20
6.8108153666215756
30
0
10
-5.2255890214654555
20
6.6744348039038286
30
0
10
-5.1374425261258487
20
6.5016747198867044
30
0
10
-4.980855599507712
20
6.3140283410650291
30
0
10
-4.7904242241659407
20
6.1376099055916091
30
0
10
-4.6386118129104359
20
6.0251246951030577
30
0
10
-4.5374521422886991
20
5.9653334183291706
30
0
10
-4.4772314121194325
20
5.9374407286595909
30
0
10
-4.4489265023099813
20
5.9264867437821422
30
0
0
SPLINE
5
118
100
AcDbEntity
8
0
100
AcDbSpline
70
4
71
5
72
16
73
10
74
0
42
0.000000001
43
0.0000000001
44
0.0000000001
40
0
40
0
40
0
40
0
40
0
40
0
40
0.20000000000000001
40
0.40000000000000002
40
0.60000000000000009
40
0.80000000000000004
40
1
40
1
40
1
40
1
40
1
40
1
41
1
41
1
41
1
41
1
41
1
41
1
41
1
41
1
41
1
41
1
10
-2.4005470873033201
20
8.1667335367569471
30
0
10
-2.384290133038415
20
8.1606152088286539
30
0
10
-2.35188166028186
20
8.1477247524294221
30
0
10
-2.3035852346184393
20
8.1264294151557319
30
0
10
-2.2399609402324021
20
8.0946435741719327
30
0
10
-2.1628826331755415
20
8.0510531452414842
30
0
10
-2.1047717295747952
20
8.0141477637694312
30
0
10
-2.064289748114625
20
7.9855962088522432
30
0
10
-2.0389087002333985
20
7.966180333236804
30
0
10
-2.0266202769754136
20
7.9563769671968174
30
0
0
SPLINE
5
119
100
AcDbEntity
8
0
100
AcDbSpline
70
4
71
5
72
41
73
35
74
0
42
0.000000001
43
0.0000000001
44
0.0000000001
40
0
40
0
40
0
40
0
40
0
40
0
40
0.033333333333333333
40
0.066666666666666666
40
0.10000000000000001
40
0.13333333333333333
40
0.16666666666666666
40
0.19999999999999998
40
0.23333333333333331
40
0.26666666666666666
40
0.29999999999999999
40
0.33333333333333331
40
0.36666666666666664
40
0.39999999999999997
40
0.43333333333333329
40
0.46666666666666662
40
0.49999999999999994
40
0.53333333333333333
40
0.56666666666666665
40
0.59999999999999998
40
0.6333333333333333
40
0.66666666666666663
40
0.69999999999999996
40
0.73333333333333328
40
0.76666666666666661
40
0.79999999999999993
40
0.83333333333333326
40
0.86666666666666659
40
0.89999999999999991
40
0.93333333333333324
40
0.96666666666666656
40
1
40
1
40
1
40
1
40
1
40
1
41
1
41
1
41
1
41
1
41
1
41
1
41
1
41
1
41
1
41
1
41
1
41
1
41
1
41
1
41
1
41
1
41
1
41
1
41
1
41
1
41
1
41
1
41
1
41
1
41
1
41
1
41
1
41
1
41
1
41
1
41
1
41
1
41
1
41
1
41
1
10
-2.0266202769754136
20
7.9563769671968174
30
0
10
-2.0177869269579984
20
7.9493299635444012
30
0
10
-2.0040275059959178
20
7.9393399863136676
30
0
10
-1.9952373957014025
20
7.9367490545484243
30
0
10
-1.993501952953685
20
7.9439811583513311
30
0
10
-1.9621667501716056
20
7.914027932013914
30
0
10
-1.8694892970816235
20
7.7950280978031454
30
0
10
-1.784959680344026
20
7.612507930819655
30
0
10
-1.756591783731738
20
7.401382047088731
30
0
10
-1.7908912151979905
20
7.1848022291000984
30
0
10
-1.8767525312043596
20
6.9831711733788548
30
0
10
-1.9902888301487058
20
6.8101441824278659
30
0
10
-2.107347697568553
20
6.6742431753001688
30
0
10
-2.2136538882989227
20
6.5778725222453787
30
0
10
-2.313091162062344
20
6.5177991415185872
30
0
10
-2.4190278765773696
20
6.4873644864088149
30
0
10
-2.5480352317699388
20
6.4785945464706343
30
0
10
-2.7129628817798324
20
6.4842686520510071
30
0
10
-2.9156547015018703
20
6.500128146052905
30
0
10
-3.1416346762188434
20
6.5265502965604414
30
0
10
-3.3688010198855931
20
6.5633506562601038
30
0
10
-3.5731423843236754
20
6.6079253454658069
30
0
10
-3.7380138102582015
20
6.6469697207879976
30
0
10
-3.856387481412074
20
6.662526977072595
30
0
10
-3.9492932412187134
20
6.6043116025715189
30
0
10
-4.0415840416518423
20
6.4517796715724387
30
0
10
-4.1341064483658103
20
6.2538595588532253
30
0
10
-4.2216095416933079
20
6.073317350462462
30
0
10
-4.2941352890300184
20
5.9645997869536371
30
0
10
-4.3445646862670557
20
5.9416124928633742
30
0
10
-4.375384367494509
20
5.9365573347660625
30
0
10
-4.3972312595192689
20
5.9328225011626756
30
0
10
-4.4196561312870877
20
5.9292571618816368
30
0
10
-4.4385185519885004
20
5.9273393130391288
30
0
10
-4.4489265023099813
20
5.9264867437821422
30
0
0
SPLINE
5
120
100
AcDbEntity
8
0
100
AcDbSpline
70
4
71
5
72
16
73
10
74
0
42
0.000000001
43
0.0000000001
44
0.0000000001
40
0
40
0
40
0
40
0
40
0
40
0
40
0.20000000000000001
40
0.40000000000000002
40
0.60000000000000009
40
0.80000000000000004
40
1
40
1
40
1
40
1
40
1
40
1
41
1
41
1
41
1
41
1
41
1
41
1
41
1
41
1
41
1
41
1
10
-2.4428978695858778
20
6.0976363615218983
30
0
10
-2.4498644091434367
20
6.1201943371931726
30
0
10
-2.4657280450179124
20
6.1647871766531113
30
0
10
-2.4953107692955099
20
6.2301072432099547
30
0
10
-2.5454335708123188
20
6.3133971178977095
30
0
10
-2.6248977734527745
20
6.4055187404110931
30
0
10
-2.7040183782567144
20
6.4619026458339226
30
0
10
-2.7747013482140788
20
6.4890873427529341
30
0
10
-2.8275258838479096
20
6.4993855557172679
30
0
10
-2.8553650018166001
20
6.5025766521926851
30
0
0
SPLINE
5
121
100
AcDbEntity
8
0
100
AcDbSpline
70
4
71
5
72
26
73
20
74
0
42
0.000000001
43
0.0000000001
44
0.0000000001
40
0
40
0
40
0
40
0
40
0
40
0
40
0.066666666666666666
40
0.13333333333333333
40
0.20000000000000001
40
0.26666666666666666
40
0.33333333333333331
40
0.39999999999999997
40
0.46666666666666662
40
0.53333333333333333
40
0.59999999999999998
40
0.66666666666666663
40
0.73333333333333328
40
0.79999999999999993
40
0.86666666666666659
40
0.93333333333333324
40
1
40
1
40
1
40
1
40
1
40
1
41
1
41
1
41
1
41
1
41
1
41
1
41
1
41
1
41
1
41
1
41
1
41
1
41
1
41
1
41
1
41
1
41
1
41
1
41
1
41
1
10
-0.95269252368722013
20
2.5020326645171282
30
0
10
-0.94301704595787816
20
2.4996498408686949
30
0
10
-0.92174877913196385
20
2.4958937916105515
30
0
10
-0.88409451035951159
20
2.49328861352125
30
0
10
-0.82351417698123541
20
2.4949682085321121
30
0
10
-0.73685663503242838
20
2.5008725292756644
30
0
10
-0.64719225372855516
20
2.5051486605073658
30
0
10
-0.56205997648201855
20
2.5036654999438053
30
0
10
-0.48675954434744617
20
2.4953486249860322
30
0
10
-0.42215313775806751
20
2.4845925722982787
30
0
10
-0.36634522599699804
20
2.4792241159702595
30
0
10
-0.31828557135074143
20
2.4881996782603029
30
0
10
-0.27817872313582787
20
2.5186763827455882
30
0
10
-0.25491786736968103
20
2.5750073988513082
30
0
10
-0.25501647993610038
20
2.6519933222095746
30
0
10
-0.27333222534285989
20
2.7358834473095643
30
0
10
-0.29636357777578637
20
2.7958431168837898
30
0
10
-0.3145841344539741
20
2.8306359189947634
30
0
10
-0.32662544682324801
20
2.8484784959565612
30
0
10
-0.33261853799352747
20
2.8560612372653855
30
0
0
SPLINE
5
122
100
AcDbEntity
8
0
100
AcDbSpline
70
4
71
5
72
21
73
15
74
0
42
0.000000001
43
0.0000000001
44
0.0000000001
40
0
40
0
40
0
40
0
40
0
40
0
40
0.10000000000000001
40
0.20000000000000001
40
0.30000000000000004
40
0.40000000000000002
40
0.5
40
0.59999999999999998
40
0.69999999999999996
40
0.79999999999999993
40
0.89999999999999991
40
1
40
1
40
1
40
1
40
1
40
1
41
1
41
1
41
1
41
1
41
1
41
1
41
1
41
1
41
1
41
1
41
1
41
1
41
1
41
1
41
1
10
-1.491487886775883
20
2.8253801349133676
30
0
10
-1.4650267060667999
20
2.817562432238141
30
0
10
-1.4129611004587672
20
2.8000639952016444
30
0
10
-1.3374325283389621
20
2.7682272616871781
30
0
10
-1.2431346939871781
20
2.7166009468412526
30
0
10
-1.1424016848012923
20
2.6473119952935473
30
0
10
-1.065697402383377
20
2.5854881319995333
30
0
10
-1.0169819675987364
20
2.541002954384401
30
0
10
-0.99417029839146842
20
2.517866570951429
30
0
10
-0.98333364262271261
20
2.5081658941477354
30
0
10
-0.97631056526941218
20
2.5057480883092853
30
0
10
-0.96924926066201
20
2.5052898734908915
30
0
10
-0.96188217397981124
20
2.5041468715876531
30
0
10
-0.95592905957556029
20
2.5028297408444873
30
0
10
-0.95269252368722013
20
2.5020326645171282
30
0
0
SPLINE
5
123
100
AcDbEntity
8
0
100
AcDbSpline
70
4
71
5
72
51
73
45
74
0
42
0.000000001
43
0.0000000001
44
0.0000000001
40
0
40
0
40
0
40
0
40
0
40
0
40
0.025000000000000001
40
0.050000000000000003
40
0.075000000000000011
40
0.10000000000000001
40
0.125
40
0.14999999999999999
40
0.17499999999999999
40
0.19999999999999998
40
0.22499999999999998
40
0.24999999999999997
40
0.27499999999999997
40
0.29999999999999999
40
0.32500000000000001
40
0.35000000000000003
40
0.37500000000000006
40
0.40000000000000008
40
0.4250000000000001
40
0.45000000000000012
40
0.47500000000000014
40
0.50000000000000011
40
0.52500000000000013
40
0.55000000000000016
40
0.57500000000000018
40
0.6000000000000002
40
0.62500000000000022
40
0.65000000000000024
40
0.67500000000000027
40
0.70000000000000029
40
0.72500000000000031
40
0.75000000000000033
40
0.77500000000000036
40
0.80000000000000038
40
0.8250000000000004
40
0.85000000000000042
40
0.87500000000000044
40
0.90000000000000047
40
0.92500000000000049
40
0.95000000000000051
40
0.97500000000000053
40
1
40
1
40
1
40
1
40
1
40
1
41
1
41
1
41
1
41
1
41
1
41
1
41
1
41
1
41
1
41
1
41
1
41
1
41
1
41
1
41
1
41
1
41
1
41
1
41
1
41
1
41
1
41
1
41
1
41
1
41
1
41
1
41
1
41
1
41
1
41
1
41
1
41
1
41
1
41
1
41
1
41
1
41
1
41
1
41
1
41
1
41
1
41
1
41
1
41
1
41
1
10
-1.894362300078694
20
7.8175953055789567
30
0
10
-1.8657304041581282
20
7.768237999590399
30
0
10
-1.8091809073127065
20
7.671383691951652
30
0
10
-1.726496091888251
20
7.5316821818260324
30
0
10
-1.621858851574244
20
7.3591012489169438
30
0
10
-1.5057443581366488
20
7.1793420494158617
30
0
10
-1.4078772278005327
20
7.0500004492338961
30
0
10
-1.324648841739144
20
6.9808228954029525
30
0
10
-1.2435039970161903
20
6.971863915396483
30
0
10
-1.1312353181389498
20
7.0060753825123072
30
0
10
-0.99483904194712969
20
7.047151306251572
30
0
10
-0.8566690556936013
20
7.051917825374387
30
0
10
-0.74350939914916969
20
6.9843105614029195
30
0
10
-0.66183925377557129
20
6.8183520667042448
30
0
10
-0.6079395864857593
20
6.5823883701674566
30
0
10
-0.57768086709355748
20
6.3379868276407025
30
0
10
-0.56425317144198606
20
6.1411547133073361
30
0
10
-0.56145240704349719
20
6.0233092957244541
30
0
10
-0.56317696507370485
20
5.9354820602312497
30
0
10
-0.56800767031146393
20
5.7748596238055843
30
0
10
-0.58302553213106145
20
5.5760861222456048
30
0
10
-0.60689111899406223
20
5.3882619808445185
30
0
10
-0.62944658349409266
20
5.2659413590099717
30
0
10
-0.60168953880439224
20
5.1682606041845522
30
0
10
-0.47632116631417731
20
5.0114138465017373
30
0
10
-0.27828020459996738
20
4.817032746269712
30
0
10
-0.053925040156778486
20
4.6252697082369929
30
0
10
0.14141683863095089
20
4.4772971741870338
30
0
10
0.26505122784568674
20
4.3922355338112542
30
0
10
0.32076688731340391
20
4.2912487783054818
30
0
10
0.34383648495992858
20
4.0931972757558164
30
0
10
0.35172498099946325
20
3.8309935486567199
30
0
10
0.3588125743149736
20
3.5635645030876062
30
0
10
0.36489416845759748
20
3.3519187228300735
30
0
10
0.36138747958245432
20
3.2314937117487679
30
0
10
0.31347269257368671
20
3.1287363216595674
30
0
10
0.21453788724328915
20
3.0159248129489642
30
0
10
0.081725231507165444
20
2.9161432766009976
30
0
10
-0.060087547530412372
20
2.858968854459123
30
0
10
-0.19259292724429511
20
2.8506238516542393
30
0
10
-0.31116522130232194
20
2.8538086788528565
30
0
10
-0.37978489825342526
20
2.858863894818557
30
0
10
-0.40944026589671834
20
2.8617156964825092
30
0
10
-0.41834562686369098
20
2.8634593778235953
30
0
10
-0.42008675141825247
20
2.8642817524389259
30
0
0
SPLINE
5
124
100
AcDbEntity
8
0
100
AcDbSpline
70
4
71
5
72
31
73
25
74
0
42
0.000000001
43
0.0000000001
44
0.0000000001
40
0
40
0
40
0
40
0
40
0
40
0
40
0.050000000000000003
40
0.10000000000000001
40
0.15000000000000002
40
0.20000000000000001
40
0.25
40
0.29999999999999999
40
0.34999999999999998
40
0.39999999999999997
40
0.44999999999999996
40
0.49999999999999994
40
0.54999999999999993
40
0.59999999999999998
40
0.65000000000000002
40
0.70000000000000007
40
0.75000000000000011
40
0.80000000000000016
40
0.8500000000000002
40
0.90000000000000024
40
0.95000000000000029
40
0.96437879677162019
40
0.96437879677162019
40
0.96437879677162019
40
0.96437879677162019
40
0.96437879677162019
40
0.96437879677162019
41
1
41
1
41
1
41
1
41
1
41
1
41
1
41
1
41
1
41
1
41
1
41
1
41
1
41
1
41
1
41
1
41
1
41
1
41
1
41
1
41
1
41
1
41
1
41
1
41
1
10
-1.491487886775883
20
2.8253801349133676
30
0
10
-1.494454578579298
20
2.8262382409653179
30
0
10
-1.496522347537323
20
2.8288321537105361
30
0
10
-1.4880323004474059
20
2.8353581486846196
30
0
10
-1.4550096717160013
20
2.8486946192182865
30
0
10
-1.3861144196320752
20
2.8694088756875518
30
0
10
-1.2992907713153921
20
2.8889287251755897
30
0
10
-1.2040317989955249
20
2.9019406495252871
30
0
10
-1.1030696873196224
20
2.902380332904726
30
0
10
-0.99894812589616877
20
2.8881938771495101
30
0
10
-0.90417698303954863
20
2.864997688677585
30
0
10
-0.8304144552585756
20
2.8410079798869075
30
0
10
-0.78360051777463924
20
2.8248720264210285
30
0
10
-0.7594249427325328
20
2.8227095042873525
30
0
10
-0.73067163846916816
20
2.834440486523607
30
0
10
-0.68801667439775793
20
2.8549339621166721
30
0
10
-0.63285356719274144
20
2.8768986593178658
30
0
10
-0.57296909311122091
20
2.8930239823698853
30
0
10
-0.51794036060952497
20
2.8981418352237371
30
0
10
-0.47377278715473709
20
2.8921116687974129
30
0
10
-0.44647552822220349
20
2.8811694675710346
30
0
10
-0.43179523721251661
20
2.8724219251347582
30
0
10
-0.4242571951151165
20
2.8672765873472921
30
0
10
-0.4208158420778651
20
2.8648099808801017
30
0
10
-0.4200867514185061
20
2.8642817524391102
30
0
0
SPLINE
5
125
100
AcDbEntity
8
0
100
AcDbSpline
70
4
71
5
72
16
73
10
74
0
42
0.000000001
43
0.0000000001
44
0.0000000001
40
0
40
0
40
0
40
0
40
0
40
0
40
0.20000000000000001
40
0.40000000000000002
40
0.60000000000000009
40
0.80000000000000004
40
1
40
1
40
1
40
1
40
1
40
1
41
1
41
1
41
1
41
1
41
1
41
1
41
1
41
1
41
1
41
1
10
-0.51245714933023645
20
2.8952003743236721
30
0
10
-0.52741499504153366
20
2.9049133686785527
30
0
10
-0.55693337233792783
20
2.9250496023256551
30
0
10
-0.60001963177266449
20
2.9573833744647064
30
0
10
-0.65503634784296438
20
3.0046888638983651
30
0
10
-0.71843669176609948
20
3.0721706546366372
30
0
10
-0.76259032731791032
20
3.1356914876299697
30
0
10
-0.79027972121328516
20
3.1910081939411432
30
0
10
-0.80595190381191573
20
3.2318126720734739
30
0
10
-0.81309051929866594
20
3.2531974481340797
30
0
0
SPLINE
5
126
100
AcDbEntity
8
0
100
AcDbSpline
70
4
71
5
72
16
73
10
74
0
42
0.000000001
43
0.0000000001
44
0.0000000001
40
0
40
0
40
0
40
0
40
0
40
0
40
0.20000000000000001
40
0.40000000000000002
40
0.60000000000000009
40
0.80000000000000004
40
1
40
1
40
1
40
1
40
1
40
1
41
1
41
1
41
1
41
1
41
1
41
1
41
1
41
1
41
1
41
1
10
-0.90850569034188067
20
3.3715987815076649
30
0
10
-0.89948342175841589
20
3.3422920706627144
30
0
10
-0.88585475944213532
20
3.2865270550917907
30
0
10
-0.87864771715451773
20
3.2114172225532429
30
0
10
-0.89206968217563243
20
3.1261288005145711
30
0
10
-0.93589312462475616
20
3.0369797066471076
30
0
10
-0.98642324658072533
20
2.9756677981733533
30
0
10
-1.0318117182237132
20
2.9345412501030981
30
0
10
-1.0654814962458747
20
2.9093369465170453
30
0
10
-1.0831696273311389
20
2.8972884967360129
30
0
0
SPLINE
5
127
100
AcDbEntity
8
0
100
AcDbSpline
70
4
71
5
72
51
73
45
74
0
42
0.000000001
43
0.0000000001
44
0.0000000001
40
0
40
0
40
0
40
0
40
0
40
0
40
0.025000000000000001
40
0.050000000000000003
40
0.075000000000000011
40
0.10000000000000001
40
0.125
40
0.14999999999999999
40
0.17499999999999999
40
0.19999999999999998
40
0.22499999999999998
40
0.24999999999999997
40
0.27499999999999997
40
0.29999999999999999
40
0.32500000000000001
40
0.35000000000000003
40
0.37500000000000006
40
0.40000000000000008
40
0.4250000000000001
40
0.45000000000000012
40
0.47500000000000014
40
0.50000000000000011
40
0.52500000000000013
40
0.55000000000000016
40
0.57500000000000018
40
0.6000000000000002
40
0.62500000000000022
40
0.65000000000000024
40
0.67500000000000027
40
0.70000000000000029
40
0.72500000000000031
40
0.75000000000000033
40
0.77500000000000036
40
0.80000000000000038
40
0.8250000000000004
40
0.85000000000000042
40
0.87500000000000044
40
0.90000000000000047
40
0.92500000000000049
40
0.95000000000000051
40
0.97500000000000053
40
1
40
1
40
1
40
1
40
1
40
1
41
1
41
1
41
1
41
1
41
1
41
1
41
1
41
1
41
1
41
1
41
1
41
1
41
1
41
1
41
1
41
1
41
1
41
1
41
1
41
1
41
1
41
1
41
1
41
1
41
1
41
1
41
1
41
1
41
1
41
1
41
1
41
1
41
1
41
1
41
1
41
1
41
1
41
1
41
1
41
1
41
1
41
1
41
1
41
1
41
1
10
-1.4445857284809809
20
2.8508714831056583
30
0
10
-1.4744522447683073
20
2.8342325830663078
30
0
10
-1.5342963996932191
20
2.8035178611501066
30
0
10
-1.6243847512290004
20
2.7651202146320659
30
0
10
-1.7413837047512728
20
2.7260584131723498
30
0
10
-1.8657794758670951
20
2.6836689200199375
30
0
10
-1.9587504207141859
20
2.6421437757750139
30
0
10
-2.0268435839843835
20
2.6110859782497546
30
0
10
-2.1155248519403447
20
2.6408830910681047
30
0
10
-2.2342349838767266
20
2.7003006726490018
30
0
10
-2.3818919546545239
20
2.743039480026578
30
0
10
-2.5499292029322547
20
2.727590215273783
30
0
10
-2.7565111370012731
20
2.7011668998140821
30
0
10
-3.0030431608947827
20
2.7254572830872625
30
0
10
-3.249950362465801
20
2.8011972646688905
30
0
10
-3.4507106531040805
20
2.9142498071973955
30
0
10
-3.5661611125333148
20
3.0356123537810982
30
0
10
-3.581351728405116
20
3.1401232587662111
30
0
10
-3.5363725222032589
20
3.2190283525039836
30
0
10
-3.4762509327839215
20
3.2907565413824544
30
0
10
-3.4395987419306842
20
3.381880277612705
30
0
10
-3.4532206209963374
20
3.5157683852448631
30
0
10
-3.5212687321127638
20
3.6940668325048747
30
0
10
-3.6261534835239839
20
3.8964381368295742
30
0
10
-3.7392669799664189
20
4.0943111320696159
30
0
10
-3.8302851339818975
20
4.2659306463415501
30
0
10
-3.8744474277292387
20
4.3999700587026211
30
0
10
-3.8667310723174202
20
4.5295440351780396
30
0
10
-3.8171435733451053
20
4.685367739088556
30
0
10
-3.7312216766487878
20
4.8384793502344401
30
0
10
-3.6144963401108909
20
4.9547150432735751
30
0
10
-3.4706040368078037
20
5.001632635811526
30
0
10
-3.2969051701712013
20
4.9932926564297917
30
0
10
-3.0985712914279011
20
4.9596450228755486
30
0
10
-2.8899616199084348
20
4.9263089830080613
30
0
10
-2.6889350364435582
20
4.9186611066901973
30
0
10
-2.513987777930712
20
4.9557916225452594
30
0
10
-2.3805048433525249
20
5.0491698855720877
30
0
10
-2.2965666791923591
20
5.198255827862539
30
0
10
-2.2634803848894771
20
5.3929267940292123
30
0
10
-2.2784983324613419
20
5.6180981269792651
30
0
10
-2.3251388557295223
20
5.8097371211740612
30
0
10
-2.3775179717251596
20
5.9541047252374959
30
0
10
-2.4198663736863941
20
6.0498720758274622
30
0
10
-2.4428978695858778
20
6.0976363615218983
30
0
0
LINE
5
128
100
AcDbEntity
8
0
100
AcDbLine
10
-3.8411795355484459
20
4.8900988705456632
30
0
11
-3.4940751717979825
21
4.9827103954718819
31
0
0
SPLINE
5
129
100
AcDbEntity
8
0
100
AcDbSpline
70
4
71
5
72
26
73
20
74
0
42
0.000000001
43
0.0000000001
44
0.0000000001
40
0
40
0
40
0
40
0
40
0
40
0
40
0.066666666666666666
40
0.13333333333333333
40
0.20000000000000001
40
0.26666666666666666
40
0.33333333333333331
40
0.39999999999999997
40
0.46666666666666662
40
0.53333333333333333
40
0.59999999999999998
40
0.66666666666666663
40
0.73333333333333328
40
0.79999999999999993
40
0.86666666666666659
40
0.93333333333333324
40
1
40
1
40
1
40
1
40
1
40
1
41
1
41
1
41
1
41
1
41
1
41
1
41
1
41
1
41
1
41
1
41
1
41
1
41
1
41
1
41
1
41
1
41
1
41
1
41
1
41
1
10
-1.2453141450915515
20
4.4399747778732497
30
0
10
-1.2508712105499808
20
4.467667348494472
30
0
10
-1.2669105832331411
20
4.5188454339188251
30
0
10
-1.3057415544903486
20
4.5829938341226111
30
0
10
-1.3820286706787002
20
4.6469627886470644
30
0
10
-1.4912146222156075
20
4.7111839682637866
30
0
10
-1.5838499424605514
20
4.783332821857174
30
0
10
-1.6357008126942136
20
4.8840478603965085
30
0
10
-1.6418152522453191
20
5.0222106043724448
30
0
10
-1.6176840027178074
20
5.1936160218216232
30
0
10
-1.588264937664714
20
5.3871605271697707
30
0
10
-1.5802778509721638
20
5.5888685978052353
30
0
10
-1.6142154211438946
20
5.7861928581769853
30
0
10
-1.6941565454214564
20
5.9731271285237062
30
0
10
-1.8059336399092376
20
6.151551340218707
30
0
10
-1.9265434058125683
20
6.3274665906460843
30
0
10
-2.0095544808907553
20
6.4724449663567816
30
0
10
-2.0547594301568379
20
6.5866353502388799
30
0
10
-2.0760468647648791
20
6.6656165841703663
30
0
10
-2.0844783958501751
20
6.7058207178990656
30
0
0
SPLINE
5
130
100
AcDbEntity
8
0
100
AcDbSpline
70
4
71
5
72
26
73
20
74
0
42
0.000000001
43
0.0000000001
44
0.0000000001
40
0
40
0
40
0
40
0
40
0
40
0
40
0.066666666666666666
40
0.13333333333333333
40
0.20000000000000001
40
0.26666666666666666
40
0.33333333333333331
40
0.39999999999999997
40
0.46666666666666662
40
0.53333333333333333
40
0.59999999999999998
40
0.66666666666666663
40
0.73333333333333328
40
0.79999999999999993
40
0.86666666666666659
40
0.93333333333333324
40
1
40
1
40
1
40
1
40
1
40
1
41
1
41
1
41
1
41
1
41
1
41
1
41
1
41
1
41
1
41
1
41
1
41
1
41
1
41
1
41
1
41
1
41
1
41
1
41
1
41
1
10
-0.033817302512158698
20
4.6140243986730205
30
0
10
0.020026953890829088
20
4.6198809329932615
30
0
10
0.12260731421787693
20
4.630538926934797
30
0
10
0.2611537997918672
20
4.6433607674404955
30
0
10
0.41500802218619093
20
4.654079593458742
30
0
10
0.55514047109743625
20
4.6566658647135561
30
0
10
0.64321086263487259
20
4.6483652428190272
30
0
10
0.68150045261508574
20
4.6294439792511879
30
0
10
0.67560777548879247
20
4.6007182164877651
30
0
10
0.63658177436406904
20
4.5639382315939789
30
0
10
0.58040767236012225
20
4.5217113079689017
30
0
10
0.52485439684056678
20
4.4769651072459258
30
0
10
0.48714046760276142
20
4.43256198317808
30
0
10
0.48135137482650592
20
4.3908750094282833
30
0
10
0.51566753921168096
20
4.3533434685014214
30
0
10
0.59390492540119733
20
4.320699392577672
30
0
10
0.69248530668715558
20
4.2987083570001738
30
0
10
0.78651513273703877
20
4.2845390141688853
30
0
10
0.85806816204439096
20
4.2761182042430654
30
0
10
0.89606129396850187
20
4.272164153001639
30
0
0
SPLINE
5
131
100
AcDbEntity
8
0
100
AcDbSpline
70
4
71
5
72
36
73
30
74
0
42
0.000000001
43
0.0000000001
44
0.0000000001
40
0
40
0
40
0
40
0
40
0
40
0
40
0.040000000000000001
40
0.080000000000000002
40
0.12
40
0.16
40
0.20000000000000001
40
0.24000000000000002
40
0.28000000000000003
40
0.32000000000000001
40
0.35999999999999999
40
0.39999999999999997
40
0.43999999999999995
40
0.47999999999999993
40
0.51999999999999991
40
0.55999999999999994
40
0.59999999999999998
40
0.64000000000000001
40
0.68000000000000005
40
0.72000000000000008
40
0.76000000000000012
40
0.80000000000000016
40
0.84000000000000019
40
0.88000000000000023
40
0.92000000000000026
40
0.9600000000000003
40
1
40
1
40
1
40
1
40
1
40
1
41
1
41
1
41
1
41
1
41
1
41
1
41
1
41
1
41
1
41
1
41
1
41
1
41
1
41
1
41
1
41
1
41
1
41
1
41
1
41
1
41
1
41
1
41
1
41
1
41
1
41
1
41
1
41
1
41
1
41
1
10
-1.2453141450915515
20
4.4399747778732497
30
0
10
-1.2494645975031438
20
4.4248674001701014
30
0
10
-1.2586450851613855
20
4.3954583644987597
30
0
10
-1.2750612752158752
20
4.3537652813244732
30
0
10
-1.3021960845592351
20
4.3029993659769472
30
0
10
-1.3436484014282746
20
4.2472460400418406
30
0
10
-1.387767904508352
20
4.1975174652695912
30
0
10
-1.4265791438975461
20
4.1512820404977226
30
0
10
-1.442567426052161
20
4.1022047003161086
30
0
10
-1.4186718225537098
20
4.0453174658470035
30
0
10
-1.3682690465825722
20
3.990774910599368
30
0
10
-1.3084907350531507
20
3.9500983790790118
30
0
10
-1.2558098161591
20
3.9329471101735396
30
0
10
-1.201589412925371
20
3.9348876908876762
30
0
10
-1.1224974907409468
20
3.9401969332576758
30
0
10
-1.0318115675394444
20
3.9450588050991762
30
0
10
-0.94889812982168376
20
3.9450713474197934
30
0
10
-0.89452817242889782
20
3.9345477911147881
30
0
10
-0.87621900798477625
20
3.8999822213826771
30
0
10
-0.87506854516315247
20
3.8168107474519024
30
0
10
-0.88225481103606962
20
3.7056129905705903
30
0
10
-0.89211823227276332
20
3.6017076069755922
30
0
10
-0.90265221726470979
20
3.5358297325279056
30
0
10
-0.91372626382409439
20
3.5243450618203305
30
0
10
-0.92504455369542538
20
3.5219215454043269
30
0
10
-0.93871268016698051
20
3.5087886783749567
30
0
10
-0.95461956392368708
20
3.5010679927995172
30
0
10
-0.97094029125339765
20
3.5057283946010958
30
0
10
-0.98400953048117401
20
3.515276388196042
30
0
10
-0.99109111085742496
20
3.5216547843070822
30
0
0
SPLINE
5
132
100
AcDbEntity
8
0
100
AcDbSpline
70
4
71
5
72
31
73
25
74
0
42
0.000000001
43
0.0000000001
44
0.0000000001
40
0
40
0
40
0
40
0
40
0
40
0
40
0.050000000000000003
40
0.10000000000000001
40
0.15000000000000002
40
0.20000000000000001
40
0.25
40
0.29999999999999999
40
0.34999999999999998
40
0.39999999999999997
40
0.44999999999999996
40
0.49999999999999994
40
0.54999999999999993
40
0.59999999999999998
40
0.65000000000000002
40
0.70000000000000007
40
0.75000000000000011
40
0.80000000000000016
40
0.8500000000000002
40
0.90000000000000024
40
0.95000000000000029
40
1
40
1
40
1
40
1
40
1
40
1
41
1
41
1
41
1
41
1
41
1
41
1
41
1
41
1
41
1
41
1
41
1
41
1
41
1
41
1
41
1
41
1
41
1
41
1
41
1
41
1
41
1
41
1
41
1
41
1
41
1
10
-3.7910505080454233
20
2.4085717080748461
30
0
10
-3.7581312328329091
20
2.4299750628615446
30
0
10
-3.6925639151256568
20
2.4684332457745048
30
0
10
-3.5950266412538596
20
2.5130751085906322
30
0
10
-3.4666109472063611
20
2.5463988133071185
30
0
10
-3.308894230562113
20
2.5447707487360507
30
0
10
-3.1541502414886846
20
2.5020907019478082
30
0
10
-3.0026680268039918
20
2.4237588897767783
30
0
10
-2.8548775163684463
20
2.3195857178482031
30
0
10
-2.7113868851818568
20
2.2055027538362721
30
0
10
-2.5728164643234921
20
2.1005023590933112
30
0
10
-2.4396152431745892
20
2.0232254177718492
30
0
10
-2.3118659986446826
20
1.9885325801779019
30
0
10
-2.1891080677896406
20
2.0043452316048249
30
0
10
-2.0700759063819105
20
2.0673564645929843
30
0
10
-1.952914797918295
20
2.1654317694196661
30
0
10
-1.8355077832416347
20
2.2815806147498146
30
0
10
-1.7157640352807952
20
2.3973348136314261
30
0
10
-1.5919054642973736
20
2.4961357808047984
30
0
10
-1.4628033607573807
20
2.5671798678786519
30
0
10
-1.3278641719532369
20
2.6045505070776578
30
0
10
-1.2150526698132644
20
2.6054175765707912
30
0
10
-1.1276982927279613
20
2.5894939438999129
30
0
10
-1.0682466047030836
20
2.5715412311816266
30
0
10
-1.0382169052077777
20
2.5607306766097135
30
0
0
SPLINE
5
133
100
AcDbEntity
8
0
100
AcDbSpline
70
4
71
5
72
36
73
30
74
0
42
0.000000001
43
0.0000000001
44
0.0000000001
40
0
40
0
40
0
40
0
40
0
40
0
40
0.040000000000000001
40
0.080000000000000002
40
0.12
40
0.16
40
0.20000000000000001
40
0.24000000000000002
40
0.28000000000000003
40
0.32000000000000001
40
0.35999999999999999
40
0.39999999999999997
40
0.43999999999999995
40
0.47999999999999993
40
0.51999999999999991
40
0.55999999999999994
40
0.59999999999999998
40
0.64000000000000001
40
0.68000000000000005
40
0.72000000000000008
40
0.76000000000000012
40
0.80000000000000016
40
0.84000000000000019
40
0.88000000000000023
40
0.92000000000000026
40
0.9600000000000003
40
1
40
1
40
1
40
1
40
1
40
1
41
1
41
1
41
1
41
1
41
1
41
1
41
1
41
1
41
1
41
1
41
1
41
1
41
1
41
1
41
1
41
1
41
1
41
1
41
1
41
1
41
1
41
1
41
1
41
1
41
1
41
1
41
1
41
1
41
1
41
1
10
-1.6363357535727572
20
2.763289324108066
30
0
10
-1.6733654209253119
20
2.7649317957249515
30
0
10
-1.7444117453194077
20
2.7699610607194276
30
0
10
-1.8419421231328053
20
2.7827379664753988
30
0
10
-1.9538579132750877
20
2.8102667990349186
30
0
10
-2.063658619410603
20
2.8618796179902137
30
0
10
-2.1442040248012613
20
2.9295455005904412
30
0
10
-2.1975283022980103
20
3.0107549756736125
30
0
10
-2.2274386538264577
20
3.1010706865359436
30
0
10
-2.2398959190314445
20
3.1937542162094972
30
0
10
-2.2431722534682934
20
3.2832129544477144
30
0
10
-2.2473778666409179
20
3.3665803913191947
30
0
10
-2.2656498789612711
20
3.4490105116996905
30
0
10
-2.3113288103251324
20
3.5403647575623571
30
0
10
-2.3901051265079705
20
3.6395650130532138
30
0
10
-2.5031815175271572
20
3.7426247346601134
30
0
10
-2.6468896334867842
20
3.843232656852726
30
0
10
-2.8137340674754219
20
3.9362872033975194
30
0
10
-2.9927027523176171
20
4.0204594191959124
30
0
10
-3.1705583602442839
20
4.0976731011684011
30
0
10
-3.3330740072421468
20
4.1719066710976591
30
0
10
-3.46630938617312
20
4.2482662518109029
30
0
10
-3.5578132235167281
20
4.3319975489333631
30
0
10
-3.5980251881635708
20
4.4274410161897384
30
0
10
-3.5811973258359813
20
4.5372700662821135
30
0
10
-3.5042770045159077
20
4.662992760326933
30
0
10
-3.3937662122800569
20
4.7767962235677714
30
0
10
-3.2833101558647453
20
4.8696454535280917
30
0
10
-3.197450404731863
20
4.9348678835780326
30
0
10
-3.151464912237949
20
4.9683098472656342
30
0
0
ENDSEC
0
SECTION
2
OBJECTS
0
DICTIONARY
5
C
100
AcDbDictionary
3
ACAD_GROUP
350
D
3
ACAD_MLINESTYLE
350
17
0
DICTIONARY
5
D
100
AcDbDictionary
0
DICTIONARY
5
1A
330
C
100
AcDbDictionary
0
DICTIONARY
5
17
100
AcDbDictionary
0
ENDSEC
0
EOF
